<svg id="SvgjsSvg1014" width="100%" height="100%" xmlns="http://www.w3.org/2000/svg" version="1.1" xlink="http://www.w3.org/1999/xlink" xmlns:svgjs="http://svgjs.com/svgjs" viewBox="58.24500274658203 58.207000732421875 395.5090026855469 395.5860290527344"><defs id="SvgjsDefs1015"></defs><g id="SvgjsG1016" fill="#153584"><path d="M134.137 406.748H82.801c-13.541 0-24.556-11.067-24.556-24.671V82.878c0-13.604 11.016-24.671 24.556-24.671h51.336c13.577 0 24.623 11.067 24.623 24.671v299.199c-.001 13.604-11.047 24.671-24.623 24.671zM82.801 64.698c-9.961 0-18.066 8.156-18.066 18.181v299.199c0 10.025 8.104 18.181 18.066 18.181h51.336c9.998 0 18.132-8.155 18.132-18.181v-299.2c0-10.025-8.134-18.181-18.132-18.181H82.801z"></path><path d="M141.269 422.414c-4.267 0-8.474-1.12-12.167-3.238l-22.241-12.864a3.243 3.243 0 0 1 1.625-6.053h25.651c9.998 0 18.132-8.111 18.132-18.082V228.008c0-.569.15-1.128.435-1.622l72.549-125.72c4.374-7.58 12.565-12.289 21.378-12.289 4.288 0 8.524 1.128 12.249 3.261l44.442 25.717c5.659 3.24 9.727 8.523 11.442 14.869 1.723 6.374.86 13.026-2.428 18.729L162.698 410.141c-4.406 7.574-12.615 12.273-21.429 12.273zm-20.691-15.666l11.764 6.804a17.972 17.972 0 0 0 8.927 2.372c6.512 0 12.572-3.464 15.814-9.037l149.63-259.175c2.421-4.197 3.054-9.096 1.785-13.793-1.262-4.669-4.25-8.553-8.414-10.938l-44.443-25.717a18.172 18.172 0 0 0-9.011-2.396c-6.501 0-12.538 3.465-15.756 9.042L158.76 228.877v153.298c0 13.55-11.046 24.572-24.623 24.572h-13.559z"></path><path d="M309.458 131.064h-96.162a3.245 3.245 0 0 1 0-6.49h96.162a3.245 3.245 0 0 1 0 6.49zm-8.913 37.104H191.92a3.245 3.245 0 0 1 0-6.49h108.625a3.245 3.245 0 1 1 0 6.49zm-21.375 36.925H170.543a3.245 3.245 0 0 1 0-6.49H279.17a3.245 3.245 0 0 1 0 6.49zm-21.378 37.104H155.514a3.245 3.245 0 0 1 0-6.49h102.278a3.245 3.245 0 0 1 0 6.49zm-21.375 37.015h-80.903a3.245 3.245 0 0 1 0-6.49h80.903a3.245 3.245 0 0 1 0 6.49zm-21.377 37.014h-59.526a3.245 3.245 0 0 1 0-6.49h59.526a3.245 3.245 0 0 1 0 6.49zm-21.377 37.013h-38.149a3.245 3.245 0 0 1 0-6.49h38.149a3.245 3.245 0 0 1 0 6.49z"></path><path d="M139.844 439.617c-8.772 0-16.949-4.688-21.338-12.234l-12.833-22.26a3.244 3.244 0 0 1 4.437-4.429l22.232 12.857a17.972 17.972 0 0 0 8.927 2.372c6.511 0 12.571-3.463 15.813-9.037l77.082-133.547a3.241 3.241 0 0 1 1.189-1.188l125.662-72.474a24.696 24.696 0 0 1 12.363-3.33c8.779 0 16.942 4.699 21.305 12.265l25.652 44.487c3.285 5.65 4.151 12.287 2.431 18.676-1.719 6.386-5.802 11.69-11.495 14.936L152.104 436.307a24.369 24.369 0 0 1-12.26 3.31zm-22.497-27.24l6.776 11.754c3.226 5.545 9.252 8.996 15.721 8.996 3.161 0 6.273-.842 9.004-2.434l259.194-149.611c4.193-2.39 7.192-6.291 8.457-10.993 1.268-4.705.635-9.584-1.78-13.736l-25.658-44.498c-3.206-5.562-9.216-9.017-15.682-9.017a18.2 18.2 0 0 0-9.114 2.458L239.35 277.339l-76.652 132.802c-4.406 7.574-12.615 12.273-21.428 12.273h-.001c-4.267 0-8.475-1.12-12.167-3.238l-11.755-6.799z"></path><path d="M420.351 268.541a3.237 3.237 0 0 1-1.621-.437l-83.303-48.13a3.245 3.245 0 1 1 3.248-5.62l83.303 48.131a3.246 3.246 0 0 1-1.627 6.056zm-26.278 27.624a3.236 3.236 0 0 1-1.621-.436l-94.024-54.33a3.245 3.245 0 1 1 3.248-5.62l94.024 54.329a3.245 3.245 0 0 1-1.627 6.057zm-36.965 21.336a3.23 3.23 0 0 1-1.62-.436l-94.057-54.337a3.246 3.246 0 0 1 3.245-5.621l94.057 54.337a3.246 3.246 0 0 1-1.625 6.057zm-37.029 21.426a3.235 3.235 0 0 1-1.62-.436l-88.599-51.147a3.246 3.246 0 0 1 3.245-5.621l88.598 51.147a3.244 3.244 0 0 1 1.188 4.433 3.243 3.243 0 0 1-2.812 1.624zm-37.032 21.327a3.237 3.237 0 0 1-1.621-.437l-70.048-40.476a3.246 3.246 0 0 1 3.247-5.62l70.048 40.476a3.246 3.246 0 0 1-1.626 6.057zm-36.998 21.337a3.23 3.23 0 0 1-1.617-.435l-51.566-29.723a3.245 3.245 0 1 1 3.241-5.623l51.566 29.723a3.245 3.245 0 0 1-1.624 6.058zm-37.03 21.426a3.228 3.228 0 0 1-1.624-.438l-33.052-19.149c-1.551-.898-2.08-2.884-1.181-4.435s2.883-2.081 4.435-1.182l33.052 19.149a3.245 3.245 0 0 1 1.181 4.435 3.246 3.246 0 0 1-2.811 1.62z"></path><path d="M429.134 453.792H129.862c-13.577 0-24.622-11.067-24.622-24.671v-25.618a3.246 3.246 0 0 1 6.056-1.62l12.826 22.248c3.226 5.545 9.252 8.996 15.722 8.996 3.16 0 6.273-.842 9.003-2.434l133.534-77.038a3.242 3.242 0 0 1 1.622-.435h145.13c13.576 0 24.621 11.023 24.621 24.574v51.326c.001 13.605-11.044 24.672-24.62 24.672zM111.73 415.63v13.491c0 10.025 8.134 18.181 18.132 18.181h299.271c9.998 0 18.131-8.155 18.131-18.181v-51.326c0-9.972-8.133-18.084-18.131-18.084H284.872l-132.768 76.596a24.37 24.37 0 0 1-12.26 3.311c-8.772 0-16.949-4.688-21.338-12.234l-6.776-11.754z"></path><path d="M447.686 442.94a3.244 3.244 0 0 1-2.813-1.623l-48.082-83.229a3.246 3.246 0 0 1 5.62-3.246l48.082 83.229a3.243 3.243 0 0 1-2.807 4.869zm-36.54 10.853a3.242 3.242 0 0 1-2.813-1.624l-54.296-94.081a3.246 3.246 0 0 1 5.622-3.245l54.296 94.081a3.246 3.246 0 0 1-2.809 4.869zm-42.719 0a3.244 3.244 0 0 1-2.813-1.623l-54.33-94.081a3.246 3.246 0 0 1 5.621-3.246l54.33 94.081a3.247 3.247 0 0 1-2.808 4.869zm-42.753 0a3.24 3.24 0 0 1-2.813-1.624l-51.14-88.613a3.247 3.247 0 0 1 5.621-3.246l51.14 88.614a3.245 3.245 0 0 1-2.808 4.869zm-42.753 0a3.244 3.244 0 0 1-2.813-1.623l-40.485-70.106a3.245 3.245 0 0 1 5.621-3.246l40.483 70.106a3.245 3.245 0 0 1-2.806 4.869zm-42.753 0a3.247 3.247 0 0 1-2.77-1.549l-31.143-50.776a3.246 3.246 0 0 1 5.532-3.395l31.144 50.776a3.246 3.246 0 0 1-2.763 4.944zm-42.752 0a3.244 3.244 0 0 1-2.815-1.625l-19.074-33.093a3.246 3.246 0 0 1 5.623-3.242l19.074 33.093a3.245 3.245 0 0 1-2.808 4.867zm-42.754 0a3.243 3.243 0 0 1-2.814-1.624l-8.683-15.046a3.244 3.244 0 1 1 5.621-3.245l8.683 15.046a3.246 3.246 0 0 1-2.807 4.869zm.852-101.556H61.49a3.245 3.245 0 0 1-3.245-3.245V115.97a3.245 3.245 0 0 1 3.245-3.245h94.024a3.246 3.246 0 0 1 3.246 3.245v233.022a3.247 3.247 0 0 1-3.246 3.245zm-90.779-6.49h87.534V119.215H64.735v226.532zm43.75 42.041c-6.396 0-11.598-5.217-11.598-11.63 0-6.414 5.203-11.632 11.598-11.632 6.414 0 11.632 5.218 11.632 11.632 0 6.413-5.218 11.63-11.632 11.63zm0-16.771c-2.816 0-5.108 2.307-5.108 5.142 0 2.834 2.292 5.14 5.108 5.14a5.147 5.147 0 0 0 5.142-5.14 5.148 5.148 0 0 0-5.142-5.142zm0-270.678c-6.396 0-11.598-5.218-11.598-11.632s5.203-11.631 11.598-11.631c6.414 0 11.632 5.218 11.632 11.631 0 6.414-5.218 11.632-11.632 11.632zm0-16.773c-2.769 0-5.108 2.354-5.108 5.141 0 2.835 2.292 5.142 5.108 5.142a5.148 5.148 0 0 0 5.142-5.142c0-2.787-2.355-5.141-5.142-5.141z"></path></g></svg>